<mxfile host="app.diagrams.net" agent="Mozilla/5.0 (Windows NT 10.0; Win64; x64; rv:132.0) Gecko/20100101 Firefox/132.0" version="24.7.17">
  <diagram name="Страница — 1" id="Pcae0kl9pQFTmBz-fFdI">
    <mxGraphModel dx="1816" dy="501" grid="1" gridSize="10" guides="1" tooltips="1" connect="1" arrows="1" fold="1" page="1" pageScale="1" pageWidth="827" pageHeight="1169" math="0" shadow="0">
      <root>
        <mxCell id="0" />
        <mxCell id="1" parent="0" />
        <mxCell id="VWyWEJcxiKsetg6iCmyr-1" value="client: Client" style="shape=umlLifeline;perimeter=lifelinePerimeter;whiteSpace=wrap;html=1;container=1;dropTarget=0;collapsible=0;recursiveResize=0;outlineConnect=0;portConstraint=eastwest;newEdgeStyle={&quot;curved&quot;:0,&quot;rounded&quot;:0};" parent="1" vertex="1">
          <mxGeometry x="-610" y="20" width="100" height="300" as="geometry" />
        </mxCell>
        <mxCell id="VWyWEJcxiKsetg6iCmyr-2" value="" style="html=1;points=[[0,0,0,0,5],[0,1,0,0,-5],[1,0,0,0,5],[1,1,0,0,-5]];perimeter=orthogonalPerimeter;outlineConnect=0;targetShapes=umlLifeline;portConstraint=eastwest;newEdgeStyle={&quot;curved&quot;:0,&quot;rounded&quot;:0};" parent="VWyWEJcxiKsetg6iCmyr-1" vertex="1">
          <mxGeometry x="45" y="60" width="10" height="210" as="geometry" />
        </mxCell>
        <mxCell id="VWyWEJcxiKsetg6iCmyr-3" value="product: Product" style="shape=umlLifeline;perimeter=lifelinePerimeter;whiteSpace=wrap;html=1;container=1;dropTarget=0;collapsible=0;recursiveResize=0;outlineConnect=0;portConstraint=eastwest;newEdgeStyle={&quot;curved&quot;:0,&quot;rounded&quot;:0};" parent="1" vertex="1">
          <mxGeometry x="-470" y="20" width="100" height="300" as="geometry" />
        </mxCell>
        <mxCell id="VWyWEJcxiKsetg6iCmyr-4" value="amount=get_amount()" style="html=1;verticalAlign=bottom;endArrow=block;curved=0;rounded=0;" parent="1" edge="1">
          <mxGeometry width="80" relative="1" as="geometry">
            <mxPoint x="-555" y="150" as="sourcePoint" />
            <mxPoint x="-420.5" y="150" as="targetPoint" />
            <Array as="points" />
          </mxGeometry>
        </mxCell>
        <mxCell id="VWyWEJcxiKsetg6iCmyr-5" value="loop [for each p in product]" style="shape=umlFrame;whiteSpace=wrap;html=1;pointerEvents=0;width=165;height=30;" parent="1" vertex="1">
          <mxGeometry x="-615" y="100" width="300" height="140" as="geometry" />
        </mxCell>
        <mxCell id="VWyWEJcxiKsetg6iCmyr-6" value="break [amount=0]" style="shape=umlFrame;whiteSpace=wrap;html=1;pointerEvents=0;width=120;height=30;" parent="1" vertex="1">
          <mxGeometry x="-650" y="170" width="370" height="52.5" as="geometry" />
        </mxCell>
        <mxCell id="VWyWEJcxiKsetg6iCmyr-7" value="null" style="html=1;verticalAlign=bottom;endArrow=open;dashed=1;endSize=8;curved=0;rounded=0;" parent="1" edge="1">
          <mxGeometry relative="1" as="geometry">
            <mxPoint x="-565" y="210" as="sourcePoint" />
            <mxPoint x="-795" y="210" as="targetPoint" />
          </mxGeometry>
        </mxCell>
        <mxCell id="VWyWEJcxiKsetg6iCmyr-8" value="order: Order" style="shape=umlLifeline;perimeter=lifelinePerimeter;whiteSpace=wrap;html=1;container=1;dropTarget=0;collapsible=0;recursiveResize=0;outlineConnect=0;portConstraint=eastwest;newEdgeStyle={&quot;curved&quot;:0,&quot;rounded&quot;:0};" parent="1" vertex="1">
          <mxGeometry x="-300" y="240" width="100" height="80" as="geometry" />
        </mxCell>
        <mxCell id="VWyWEJcxiKsetg6iCmyr-9" value="new(order)" style="html=1;verticalAlign=bottom;endArrow=open;dashed=1;endSize=8;curved=0;rounded=0;" parent="1" source="VWyWEJcxiKsetg6iCmyr-2" edge="1">
          <mxGeometry relative="1" as="geometry">
            <mxPoint x="-550" y="260" as="sourcePoint" />
            <mxPoint x="-300" y="260" as="targetPoint" />
          </mxGeometry>
        </mxCell>
        <mxCell id="VWyWEJcxiKsetg6iCmyr-10" value="" style="shape=umlLifeline;perimeter=lifelinePerimeter;whiteSpace=wrap;html=1;container=1;dropTarget=0;collapsible=0;recursiveResize=0;outlineConnect=0;portConstraint=eastwest;newEdgeStyle={&quot;curved&quot;:0,&quot;rounded&quot;:0};participant=umlActor;size=40;" parent="1" vertex="1">
          <mxGeometry x="-810" y="20" width="20" height="300" as="geometry" />
        </mxCell>
        <mxCell id="VWyWEJcxiKsetg6iCmyr-11" value="" style="html=1;points=[[0,0,0,0,5],[0,1,0,0,-5],[1,0,0,0,5],[1,1,0,0,-5]];perimeter=orthogonalPerimeter;outlineConnect=0;targetShapes=umlLifeline;portConstraint=eastwest;newEdgeStyle={&quot;curved&quot;:0,&quot;rounded&quot;:0};" parent="VWyWEJcxiKsetg6iCmyr-10" vertex="1">
          <mxGeometry x="5" y="60" width="10" height="210" as="geometry" />
        </mxCell>
        <mxCell id="VWyWEJcxiKsetg6iCmyr-12" value=":user" style="text;html=1;align=center;verticalAlign=middle;resizable=0;points=[];autosize=1;strokeColor=none;fillColor=none;" parent="1" vertex="1">
          <mxGeometry x="-825" y="50" width="50" height="30" as="geometry" />
        </mxCell>
        <mxCell id="VWyWEJcxiKsetg6iCmyr-13" value="&lt;span style=&quot;font-size: 12px; text-align: left; text-wrap-mode: wrap; background-color: rgb(251, 251, 251);&quot;&gt;Create_order(product: Product[*], adress: String, delivery_time: Real)&lt;/span&gt;" style="html=1;verticalAlign=bottom;endArrow=block;curved=0;rounded=0;entryX=0;entryY=0;entryDx=0;entryDy=5;entryPerimeter=0;" parent="1" source="VWyWEJcxiKsetg6iCmyr-11" target="VWyWEJcxiKsetg6iCmyr-2" edge="1">
          <mxGeometry width="80" relative="1" as="geometry">
            <mxPoint x="-770" y="110" as="sourcePoint" />
            <mxPoint x="-660" y="50" as="targetPoint" />
          </mxGeometry>
        </mxCell>
        <mxCell id="VWyWEJcxiKsetg6iCmyr-14" value="order" style="html=1;verticalAlign=bottom;endArrow=open;dashed=1;endSize=8;curved=0;rounded=0;entryX=1;entryY=1;entryDx=0;entryDy=-5;entryPerimeter=0;" parent="1" source="VWyWEJcxiKsetg6iCmyr-2" target="VWyWEJcxiKsetg6iCmyr-11" edge="1">
          <mxGeometry relative="1" as="geometry">
            <mxPoint x="-650" y="290" as="sourcePoint" />
            <mxPoint x="-730" y="290" as="targetPoint" />
          </mxGeometry>
        </mxCell>
      </root>
    </mxGraphModel>
  </diagram>
</mxfile>
